<?xml version="1.0" standalone="no"?>
<!DOCTYPE svg PUBLIC "-//W3C//DTD SVG 20010904//EN"
 "http://www.w3.org/TR/2001/REC-SVG-20010904/DTD/svg10.dtd">
<svg version="1.0" xmlns="http://www.w3.org/2000/svg"
 width="447.000000pt" height="447.000000pt" viewBox="0 0 447.000000 447.000000"
 preserveAspectRatio="xMidYMid meet">

<g transform="translate(0.000000,447.000000) scale(0.100000,-0.100000)"
fill="#000000" stroke="none">
<path d="M2288 4459 c-16 -9 -16 -11 5 -32 l22 -22 -125 -6 c-234 -11 -496
-93 -590 -184 -34 -33 -144 -105 -161 -105 -4 0 -27 -17 -51 -37 -24 -21 -59
-47 -78 -57 -19 -11 -53 -39 -74 -63 -33 -37 -40 -52 -44 -98 -3 -39 -11 -61
-27 -77 -42 -44 -44 -55 -18 -137 21 -68 24 -93 22 -231 -2 -150 0 -161 39
-325 23 -93 50 -199 62 -235 62 -194 91 -294 105 -375 9 -49 23 -112 32 -140
22 -71 106 -270 164 -388 27 -55 49 -105 49 -111 0 -6 -13 -19 -29 -28 -17 -9
-56 -56 -87 -104 -83 -127 -147 -204 -201 -242 l-48 -32 -5 164 c-3 90 -9 168
-13 173 -5 4 -69 10 -143 11 -115 3 -136 6 -144 21 -10 19 -3 61 10 61 13 0
-1 40 -14 41 -56 3 -260 26 -336 38 -33 5 -60 5 -67 -1 -6 -5 -11 -30 -11 -55
0 -25 -5 -50 -10 -55 -7 -7 -55 -7 -143 0 -116 9 -135 8 -144 -5 -14 -18 -29
-197 -75 -883 -11 -162 -24 -340 -30 -395 -5 -55 -14 -174 -21 -264 l-12 -164
-48 -20 c-46 -20 -49 -23 -49 -59 l0 -38 2235 0 2235 0 0 1193 0 1193 -40 -4
c-37 -4 -42 -2 -52 25 -8 20 -24 34 -54 47 -24 10 -44 22 -44 26 0 5 -8 10
-17 12 -17 3 -24 29 -74 293 -11 61 -25 130 -30 155 -5 25 -16 81 -23 125 -33
196 -65 358 -79 405 -6 19 -10 41 -9 48 2 7 -4 15 -13 18 -12 5 -13 10 -4 20
10 13 3 72 -15 115 -7 16 34 69 53 69 15 0 31 -35 37 -82 9 -71 35 -222 40
-229 2 -4 9 -38 15 -75 12 -78 38 -255 39 -266 0 -13 25 -9 46 8 14 12 15 14
3 11 -19 -6 -39 10 -39 31 0 12 3 12 15 2 10 -9 15 -9 15 -1 0 17 37 13 44 -4
3 -8 12 -15 21 -15 11 0 15 -11 15 -46 l0 -47 25 27 c13 14 31 26 40 26 8 0
15 7 15 15 0 18 16 20 26 3 4 -6 -1 -17 -11 -24 -17 -12 -16 -14 9 -25 14 -7
26 -18 26 -26 0 -7 5 -13 10 -13 7 0 10 167 10 481 l0 480 -22 -7 c-13 -3 -38
-13 -57 -20 -18 -8 -40 -14 -48 -14 -8 0 -42 -13 -76 -29 -66 -31 -133 -55
-209 -74 -25 -7 -50 -15 -53 -19 -4 -4 -16 -3 -27 3 -16 8 -24 6 -43 -15 -12
-13 -39 -28 -59 -31 -20 -4 -36 -11 -36 -16 0 -5 -7 -9 -15 -9 -8 0 -23 -4
-33 -9 -9 -5 -44 -20 -77 -33 -33 -12 -63 -26 -66 -31 -3 -4 -10 -7 -15 -6
-15 5 -54 -12 -54 -23 0 -5 -7 -7 -15 -4 -9 3 -23 1 -33 -4 -9 -6 -48 -21 -87
-34 -38 -13 -127 -48 -197 -76 -70 -29 -134 -50 -142 -47 -8 3 -20 23 -25 44
-13 46 -48 187 -67 263 -34 139 -66 246 -80 261 -7 8 -14 28 -14 42 0 15 -4
27 -10 27 -5 0 -10 7 -10 15 0 9 -8 18 -17 21 -66 21 -71 25 -69 57 1 22 -3
31 -13 29 -20 -4 -39 16 -47 51 -7 37 -40 73 -48 54 -3 -9 -7 -9 -14 2 -8 11
-15 11 -47 0 -33 -12 -38 -12 -46 4 -6 10 -22 17 -40 17 -17 0 -32 6 -35 14
-3 8 -12 12 -19 10 -7 -3 -16 -1 -20 5 -3 6 -17 11 -30 11 -14 0 -32 11 -45
27 -14 18 -24 23 -31 16 -8 -8 -4 -16 12 -27 22 -15 23 -16 3 -16 -22 0 -64
38 -64 58 0 14 -19 15 -42 1z m392 -134 c0 -8 -4 -15 -10 -15 -5 0 -10 7 -10
15 0 8 5 15 10 15 6 0 10 -7 10 -15z m1286 -632 c3 -16 10 -41 15 -57 5 -16 9
-41 9 -55 0 -15 9 -43 20 -64 16 -30 22 -62 25 -145 2 -59 10 -139 19 -177 8
-39 17 -99 20 -134 3 -36 11 -68 17 -72 7 -4 9 -18 5 -35 -5 -22 -4 -25 4 -14
7 11 10 -1 8 -43 0 -33 3 -62 8 -65 5 -4 10 -36 11 -72 1 -36 6 -87 12 -115
24 -112 24 -105 -14 -105 -20 0 -66 14 -103 31 -59 27 -74 30 -127 24 -116
-11 -170 -27 -238 -67 -65 -39 -70 -41 -130 -35 -67 7 -59 1 -174 134 l-45 53
1 194 c1 181 0 199 -24 273 -16 53 -34 88 -54 107 l-30 29 -36 -22 c-20 -11
-38 -21 -40 -21 -9 0 -17 73 -11 105 9 46 -4 39 466 232 395 163 377 157 386
116z m-2776 -29 c0 -8 -4 -12 -10 -9 -5 3 -10 10 -10 16 0 5 5 9 10 9 6 0 10
-7 10 -16z m3032 -478 c-9 -18 -11 -16 -11 19 0 33 1 37 10 21 8 -12 8 -25 1
-40z m98 -21 c0 -8 -7 -15 -15 -15 -16 0 -20 12 -8 23 11 12 23 8 23 -8z
m-183 -272 c-3 -10 -5 -4 -5 12 0 17 2 24 5 18 2 -7 2 -21 0 -30z m-3332
-1041 c-3 -3 -11 0 -18 7 -9 10 -8 11 6 5 10 -3 15 -9 12 -12z m65 -2 c0 -5
-2 -10 -4 -10 -3 0 -8 5 -11 10 -3 6 -1 10 4 10 6 0 11 -4 11 -10z m-109 -60
c24 -22 37 -46 50 -97 9 -37 15 -71 12 -75 -9 -16 -32 -7 -35 15 -2 12 -7 -9
-12 -48 -4 -38 -13 -73 -20 -77 -17 -12 -74 -9 -82 3 -12 21 -4 193 12 223 18
37 18 38 -3 34 -25 -4 -28 4 -12 30 19 30 51 28 90 -8z m-123 -503 c3 -16 1
-17 -16 -8 -16 8 -21 6 -31 -16 -10 -21 -9 -28 1 -34 10 -7 9 -9 -4 -9 -14 0
-18 8 -18 38 0 21 3 42 7 46 14 14 58 1 61 -17z m158 13 c33 0 54 -4 54 -11 0
-7 -10 -9 -25 -5 -18 5 -25 2 -25 -9 0 -19 -14 -19 -30 0 -15 18 -57 20 -63 3
-3 -10 -10 -10 -30 1 -42 22 -33 35 19 27 26 -3 71 -6 100 -6z m59 -80 c3 -5
-1 -10 -10 -10 -9 0 -13 5 -10 10 3 6 8 10 10 10 2 0 7 -4 10 -10z"/>
<path d="M750 1765 c0 -8 7 -15 15 -15 9 0 12 6 9 15 -4 8 -10 15 -15 15 -5 0
-9 -7 -9 -15z"/>
<path d="M2350 4460 c0 -5 4 -10 9 -10 6 0 13 5 16 10 3 6 -1 10 -9 10 -9 0
-16 -4 -16 -10z"/>
<path d="M335 3757 c-94 -54 -226 -152 -223 -165 5 -24 70 -42 425 -114 l102
-21 48 31 c26 16 75 44 108 62 83 44 133 86 119 100 -6 6 -53 22 -105 35 -435
111 -412 107 -474 72z"/>
<path d="M4214 3026 c2 -19 9 -43 15 -53 9 -16 10 -16 11 5 0 19 5 22 40 22
22 0 40 -4 40 -10 0 -12 40 -13 58 -2 9 6 0 12 -25 20 -63 18 -99 22 -112 9
-8 -8 -11 -4 -11 16 0 15 -5 27 -10 27 -6 0 -8 -15 -6 -34z"/>
<path d="M4422 2841 c-27 -20 -32 -67 -12 -126 27 -82 29 -142 5 -178 -13 -20
-13 -26 -3 -30 10 -4 10 -6 1 -6 -7 -1 -13 -5 -13 -10 0 -5 15 -5 33 -2 l32 7
3 182 c3 195 1 200 -46 163z"/>
<path d="M985 1870 c4 -6 11 -8 16 -5 14 9 11 15 -7 15 -8 0 -12 -5 -9 -10z"/>
</g>
</svg>
